# xmcd
#
# Track frame offsets: 
#        183
#        19623
#        29740
#        57800
#        76275
#        97223
#        117905
#        128655
#        141215
#        161908
#
# Disc length: 2545 seconds
#
# Revision: 27
# Processed by: cddbd v1.5.2PL0 Copyright (c) Steve Scherf et al.
# Submitted via: ExactAudioCopy v1.0b1
#
DISCID=8609ef0a
DTITLE=John Lee Hooker - Boom Boom
DYEAR=1992
DGENRE=Blues
TTITLE0=Boom Boom
TTITLE1=I'm Bad Like Jesse James
TTITLE2=Same Old Blues Again
TTITLE3=Sugar Mama
TTITLE4=Trick Bag (Shoppin' For My Tombstone)
TTITLE5=Boogie At Russian Hill
TTITLE6=Hittin' The Bottle Again
TTITLE7=Bottle Up And Go
TTITLE8=Throught I Heard
TTITLE9=I Ain't Gonna Suffer No More
EXTD=YEAR: 1992
EXTT0=
EXTT1=
EXTT2=
EXTT3=
EXTT4=
EXTT5=
EXTT6=
EXTT7=
EXTT8=
EXTT9=
PLAYORDER=
